<svg xmlns="http://www.w3.org/2000/svg" width="255" height="71" viewBox="0 0 255 71" fill="none"><g clip-path="url(#clip0_2101_1369)"><mask id="mask0_2101_1369" style="mask-type:luminance" maskUnits="userSpaceOnUse" x="5" y="1" width="64" height="63"><path d="M5.8501 32.5399C5.8501 49.7962 19.8385 63.7846 37.0948 63.7846C54.3511 63.7846 68.3395 49.7962 68.3395 32.5399C68.3395 15.2836 54.3511 1.29518 37.0948 1.29518C19.8385 1.29518 5.8501 15.2836 5.8501 32.5399Z" fill="white"></path></mask><g mask="url(#mask0_2101_1369)"><path d="M55.7082 36.1421L47.6016 41.6987L52.7271 61.2474L56.7877 35.9795L55.7082 36.1421Z" fill="#5BCAE9"></path><path d="M36.2981 49.4455L52.7269 61.2474L47.6014 41.6987L36.2981 49.4455Z" fill="#05ABB5"></path><path d="M18.7698 48.3258C21.1024 48.0828 23.3108 47.3704 25.1064 45.9347L23.4149 45.405L18.7698 48.3258Z" fill="#F47427"></path><path d="M36.298 49.4455L33.927 50.7771C31.3241 55.7693 27.5119 59.3806 23.886 63.9581L25.877 65.1071L52.725 61.2474L36.2962 49.4455H36.298Z" fill="#FBB040"></path><path d="M34.523 49.5606C34.333 49.9752 34.1339 50.3807 33.9275 50.7771L36.2985 49.4455L34.5248 49.5606H34.523Z" fill="#F79422"></path><path d="M57.1206 35.9284L62.9348 51.0803L61.3767 35.2835L57.1206 35.9284Z" fill="#128DA9"></path><path d="M17.7871 43.6386L15.7942 48.4043C16.7934 48.4481 17.7907 48.4262 18.768 48.3258L23.4113 45.405L17.7871 43.6404V43.6386Z" fill="#DA3727"></path><path d="M52.7268 61.2474L54.4073 61.5781L64.684 55.6451L62.9341 51.0803L52.7268 61.2474Z" fill="#00B7D4"></path><path d="M56.7874 35.9795L52.7268 61.2474L62.9341 51.0803L57.1199 35.9284L56.7874 35.9795Z" fill="#06A8B1"></path><path d="M25.8795 65.1071L30.258 67.6352C32.3312 68.8335 34.6949 69.4618 37.0878 69.4618C39.4807 69.4618 41.8407 68.8335 43.9158 67.6352L46.3598 66.2232L52.7257 61.2474L25.8777 65.1071H25.8795Z" fill="#F79422"></path><path d="M48.6318 37.2143L45.8389 34.9693L47.6016 41.6987L55.7082 36.142L48.6318 37.2143Z" fill="#00A8CB"></path><path d="M35.5493 46.9722C35.3155 47.6645 35.0598 48.3294 34.7839 48.9706L36.2982 49.4455L35.5493 46.9722Z" fill="#F79A22"></path><path d="M25.1043 45.9347C26.1382 45.1091 27.0314 44.0405 27.7365 42.6851L23.4128 45.4031L25.1043 45.9329V45.9347Z" fill="#F79A22"></path><path d="M46.3611 66.225L53.516 62.0932L52.7269 61.2474L46.3611 66.225Z" fill="#FFC317"></path><path d="M62.9343 51.0785L67.8243 53.296C70.356 50.7625 71.8429 47.2882 71.8429 43.624V42.7691L71.5396 42.5061L62.9343 51.0785Z" fill="#327A89"></path><path d="M61.3765 35.2836L62.9346 51.0785L71.5399 42.5061L64.8398 36.7102L62.9236 35.0497L61.3765 35.2836Z" fill="#00A8CB"></path><path d="M53.5159 62.0932L54.4073 61.5781L52.7268 61.2474L53.5159 62.0932Z" fill="#F99F1B"></path><path d="M64.6843 55.6451L65.0076 55.4588C66.0487 54.8578 66.9913 54.129 67.8243 53.2979L62.9343 51.0803L64.6843 55.6451Z" fill="#0DACB8"></path><path d="M2.33008 43.6239C2.33008 44.066 2.352 44.5062 2.39584 44.9428C3.34569 45.2624 4.26997 45.6351 5.16137 46.0662C6.79074 46.6744 8.94983 47.3612 11.3117 47.8362L2.33008 40.0657V43.6239Z" fill="#EE2238"></path><path d="M2.33008 38.7907V40.0657L11.3117 47.8362C12.7566 48.1266 14.2745 48.3386 15.7943 48.4043L17.7871 43.6386L2.33008 38.7889V38.7907Z" fill="#ED5B2F"></path><path d="M31.5875 33.8861C32.2067 32.5801 32.815 31.3617 33.4105 30.2274L30.3618 29.8383L31.5875 33.8861Z" fill="#00A8CB"></path><path d="M42.0305 31.9079C41.4789 32.8212 40.9546 33.7528 40.4614 34.6844L43.2799 32.9126L42.0305 31.9079Z" fill="#00A8CB"></path><path d="M47.6016 41.6987L37.9259 40.0492C37.1003 42.0275 36.4664 43.8341 36.0645 45.2698C35.9075 45.858 35.7339 46.4242 35.5476 46.974L36.2965 49.4473L47.5998 41.6987H47.6016Z" fill="#0F8FA4"></path><path d="M45.8387 34.9694L43.2796 32.9126L40.461 34.6844C39.4911 36.5147 38.6381 38.345 37.9275 40.0474L47.6032 41.6987L45.8405 34.9694H45.8387Z" fill="#00B7D4"></path><path d="M14.9395 39.2875L12.7238 40.4657L2.33203 38.5313V38.7907L17.7873 43.6386L14.9395 39.2875Z" fill="#EC2145"></path><path d="M14.9392 39.2875L17.7869 43.6386L20.631 36.2626L14.9392 39.2875Z" fill="#0DACB8"></path><path d="M29.3116 29.705L25.7022 32.5326L17.7874 43.6404L28.6632 40.5406C29.6642 38.0984 30.6396 35.8881 31.5876 33.8879L30.362 29.8401L29.3116 29.7068V29.705Z" fill="#00B7D4"></path><path d="M23.4134 45.4031L27.7371 42.6851C27.927 42.3161 28.1061 41.9307 28.2668 41.5197C28.4001 41.1872 28.5317 40.8621 28.665 40.5388L17.7874 43.6386L23.4134 45.4031Z" fill="#05ABB5"></path><path d="M14.8321 13.4496L7.75936 8.36977C4.9171 10.5216 3.02105 13.7163 2.48584 17.2308L3.5252 21.1964L14.8303 13.4478L14.8321 13.4496Z" fill="#05ABB5"></path><path d="M27.7148 17.492L36.3476 12.0614L14.8315 13.4496L27.7148 17.492Z" fill="#F47427"></path><path d="M34.7401 2.2688L44.9109 -3.44312H33.8031L26.0837 -2.33433L9.15982 7.43638C8.67028 7.71951 8.20449 8.03186 7.75879 8.36796L14.8297 13.4479L34.7383 2.2688H34.7401Z" fill="#F3712A"></path><path d="M14.8315 13.4497L36.3476 12.0614L34.7401 2.26878L14.8315 13.4497Z" fill="#F79422"></path><path d="M44.9111 -3.4413L34.7422 2.26879L36.3478 12.0614L46.8017 -1.55073L44.9111 -3.4413Z" fill="#F79A22"></path><path d="M33.3409 19.2565L36.3476 12.0614L27.7148 17.492L33.3409 19.2565Z" fill="#DA3727"></path><path d="M36.3477 12.0614L45.6051 15.6088C46.9458 14.9768 48.0528 14.7832 48.904 14.6991C51.2512 14.1603 50.769 11.1554 54.0789 13.0405C55.2242 13.6433 55.6352 14.3612 56.7202 15.2416L59.2556 10.907L36.3477 12.0633V12.0614Z" fill="#EF4237"></path><path d="M36.3477 12.0614L59.2556 10.9051L46.8015 -1.55074L36.3477 12.0614Z" fill="#FBB416"></path><path d="M3.52653 21.1965L2.33008 22.0166V29.957L6.11671 31.075L3.52653 21.1965Z" fill="#00A8CB"></path><path d="M6.11671 31.0749L2.33008 29.957V32.7993L6.5003 32.5399L6.11671 31.0749Z" fill="#0DACB8"></path><path d="M2.33008 32.7993V35.278L6.50213 32.5381L2.33008 32.7993Z" fill="#058AA0"></path><path d="M27.7149 17.492L14.8315 13.4497L17.9186 23.6515L27.7149 17.492Z" fill="#F79A22"></path><path d="M58.733 20.6357C61.9169 20.1388 59.7359 21.6275 58.733 20.6357L71.841 25.6571V19.2693C71.841 16.6116 71.0574 14.0524 69.66 11.8787L58.7312 20.6357H58.733Z" fill="#8F1733"></path><path d="M65.0113 7.4382L63.2779 6.43901L59.2556 10.9052L56.7202 15.2398C57.1349 15.5759 57.3248 16.407 58.0153 16.7924C58.6528 17.2454 60.432 18.5752 61.1169 19.2547L69.6602 11.8788C68.5002 10.0777 66.9202 8.54149 65.0113 7.4382Z" fill="#EE223A"></path><path d="M59.2571 10.9052L58.3383 3.58579L47.6123 -2.60651L46.8013 -1.55072L59.2571 10.9052Z" fill="#F99D20"></path><path d="M63.2801 6.43902L61.9338 5.66089L59.2578 10.9052L63.2801 6.43902Z" fill="#F0494B"></path><path d="M61.9335 5.66085L58.3386 3.58577L59.2574 10.9051L61.9335 5.66085Z" fill="#F58220"></path><path d="M48.6316 37.2143L55.708 36.142L56.7875 35.9795L57.12 35.9283L61.3761 35.2835L62.9232 35.0497L51.1103 24.8296L48.6316 37.2143Z" fill="#EE4556"></path><path d="M45.8389 34.9693L48.6319 37.2143L51.1125 24.8296L43.3748 29.8036C42.9127 30.4904 42.4633 31.1937 42.0322 31.9079L43.2816 32.9125L45.8408 34.9693H45.8389Z" fill="#D61E44"></path><path d="M51.1106 24.8296L56.8316 20.8366C56.4828 20.8604 56.1119 20.8804 55.7137 20.8951C54.8954 20.8275 54.0844 20.9097 53.2825 21.1161L51.1106 24.8296Z" fill="#D61E44"></path><path d="M42.6661 17.5267C43.742 16.6335 44.7248 16.0252 45.607 15.6087L36.3496 12.0614L42.668 17.5267H42.6661Z" fill="#EE2238"></path><path d="M51.1104 24.8296L53.2822 21.1161C51.8976 21.4723 50.5441 22.2047 49.238 23.2094L51.1104 24.8278V24.8296Z" fill="#EE2238"></path><path d="M62.9235 35.0497L64.8396 36.7102L71.189 31.1298L51.1106 24.8315L62.9235 35.0497Z" fill="#EE204A"></path><path d="M64.8396 36.7101L71.5379 42.5061L71.843 42.7691V42.2047V31.4731V31.3343V30.5562L71.189 31.1297L64.8396 36.7101Z" fill="#D61E44"></path><path d="M33.3411 19.2565L39.2155 21.0996C40.4522 19.5689 41.603 18.4072 42.6661 17.5267L36.3495 12.0614L33.3429 19.2565H33.3411Z" fill="#ED5B2F"></path><path d="M51.1104 24.8296L49.238 23.2112C48.933 23.4469 48.6298 23.6953 48.332 23.9583L51.1104 24.8296Z" fill="#ED5B2F"></path><path d="M58.7332 20.6357C58.198 20.7197 57.5678 20.7873 56.8316 20.8366L51.1106 24.8296L71.189 31.1297L71.8412 30.5543V25.6553L58.7332 20.6338V20.6357Z" fill="#E8213D"></path><path d="M62.9233 35.0497L64.8395 36.7102" stroke="#D61E44" stroke-linecap="round" stroke-linejoin="round"></path><path d="M71.5379 42.506L64.8396 36.7101" stroke="#C51F42" stroke-linecap="round" stroke-linejoin="round"></path><path d="M17.9189 23.6515L6.11694 31.075L6.50236 32.5399L21.5849 35.7566L17.9189 23.6515Z" fill="#00A8CB"></path><path d="M21.5849 35.7566L20.6314 36.2626L17.7874 43.6386L25.704 32.5308L29.3116 29.705L33.3412 19.2566L21.5849 35.7566Z" fill="#049CB2"></path><path d="M21.5847 35.7566L6.5003 32.5381L2.33008 35.278V37.4682L21.5847 35.7566Z" fill="#00B7D4"></path><path d="M14.9395 39.2875L20.6313 36.2626L21.5848 35.7566L2.33203 37.47V38.5313L12.7238 40.4657L14.9395 39.2875Z" fill="#3BC5ED"></path><path d="M14.8317 13.4497L3.52661 21.1983L17.9187 23.6515L14.8317 13.4497Z" fill="#0F8FA4"></path><path d="M17.9187 23.6515L3.52661 21.1965L6.11679 31.075L17.9187 23.6515Z" fill="#00B7D4"></path><path d="M36.7642 24.4844C37.6136 23.1911 38.4319 22.0714 39.2155 21.0996L33.3411 19.2566L36.7642 24.4844Z" fill="#EC2145"></path><path d="M51.1105 24.8297L48.3321 23.9583C46.5548 25.5238 44.8834 27.5641 43.3728 29.8036L51.1105 24.8297Z" fill="#EC2145"></path><path d="M33.3411 19.2566L29.3115 29.705L30.3618 29.8383L33.4105 30.2274C34.5759 28.0098 35.6938 26.1101 36.7624 24.4844L33.3393 19.2566H33.3411Z" fill="#0DACB8"></path><path d="M21.5845 35.7566L33.3408 19.2566L17.9185 23.6515L21.5845 35.7566Z" fill="#00B7D4"></path><path d="M17.9185 23.6515L33.3408 19.2565L27.7147 17.492L17.9185 23.6515Z" fill="#05ABB5"></path><path d="M36.5978 24.2305L33.4121 30.2274L40.4593 34.6844L42.0302 31.9079L36.5978 24.2305Z" fill="#00B7D4"></path><path d="M35.5494 46.9722L33.478 40.4657L37.9259 40.0474L35.5494 46.9722Z" fill="#00B7D4"></path><path d="M27.7368 42.6851L36.2983 49.4455L33.4761 40.4657L31.4705 33.4989L27.7368 42.6851Z" fill="#05ABB5"></path><path d="M37.9258 40.0474L40.4594 34.6844L33.4122 30.2274L31.5874 33.8861L33.4761 40.4657L37.9258 40.0474Z" fill="#05ABB5"></path><path d="M48.3323 23.9583L39.0621 20.8384L36.7642 24.4844L42.0304 31.9079L48.3323 23.9583Z" fill="#EE4556"></path><path d="M53.2825 21.1179L46.5696 14.6973L42.4487 17.2802L48.3323 23.9583L53.2825 21.1179Z" fill="#EE4556"></path><path d="M48.3323 23.9583L42.4487 17.2801L39.2156 21.0996L48.3323 23.9583Z" fill="#EE204A"></path><path d="M61.119 19.2565L56.7222 15.2397L49.7207 18.1131L53.2827 21.1179L60.0285 20.6357L61.119 19.2565Z" fill="#EE204A"></path><path d="M49.238 13.2561L49.7221 18.1131L54.5956 16.1111L49.238 13.2561Z" fill="#E8213D"></path><path d="M52.1971 11.3527L50.228 14.0232L56.8624 14.9968L52.1971 11.3527Z" fill="#EF4237"></path><path d="M44.9109 15.2398L46.8015 19.6237L49.7223 18.1131L49.3953 13.9173L44.9109 15.2398Z" fill="#EE223A"></path><path d="M56.7204 15.2398L54.596 16.1111L50.7747 14.0744L56.9816 14.7941L56.7204 15.2398Z" fill="#EF4237"></path><path d="M2.39575 44.9428L23.888 63.9582L25.5649 57.2763L2.39575 44.9428Z" fill="#ED5B2F"></path><path d="M27.7369 42.6851L36.2984 49.4455L33.9274 50.7771L25.1047 45.9347L27.7369 42.6851Z" fill="#F79A22"></path><path d="M18.7698 48.3257L33.9291 50.7771L25.1046 45.9347L18.7698 48.3257Z" fill="#F47427"></path><path d="M11.3116 47.8362L15.2444 51.7836L2.39575 44.9428L11.3116 47.8362Z" fill="#EE2238"></path><path d="M15.244 51.7836L15.7939 48.4043L11.3113 47.8362L15.244 51.7836Z" fill="#ED5B2F"></path><path d="M18.77 48.3257L17.5718 53.022L15.2446 51.7836L15.7944 48.4043L18.77 48.3257Z" fill="#EE2238"></path><path d="M25.565 57.2781L28.3379 58.6627L23.8882 63.9581L25.565 57.2781Z" fill="#F3712A"></path><path d="M34.7693 50.7771L18.7698 48.3257L28.3377 58.6627L34.7693 50.7771Z" fill="#F79422"></path><path d="M17.5718 53.022L28.665 59.0171L18.7701 48.3257L17.5718 53.022Z" fill="#ED5B2F"></path></g><mask id="mask1_2101_1369" style="mask-type:luminance" maskUnits="userSpaceOnUse" x="-42" y="-22" width="333" height="115"><path d="M291 -22H-41.6699V92.0263H291V-22Z" fill="white"></path></mask><g mask="url(#mask1_2101_1369)"><path d="M37.727 35.5301L33.5148 57.521C33.3723 58.2663 32.7366 58.8161 31.9786 58.8472C31.953 58.8472 31.9292 58.8508 31.9055 58.8508C31.1767 58.8508 30.53 58.3668 30.3273 57.658L24.2099 36.1749L21.5247 43.1618C21.2781 43.8048 20.6479 44.2286 19.9684 44.2103C19.2797 44.203 18.6733 43.7591 18.4486 43.107L15.4438 34.4305L14.1688 36.9385C13.8893 37.4883 13.3249 37.8353 12.7111 37.8353H0.932954C0.925647 37.5357 0.920166 37.2362 0.920166 36.933V35.457C0.920166 35.1538 0.925647 34.8561 0.932954 34.5565H11.7028L14.2693 29.504C14.5688 28.9177 15.1881 28.5651 15.8438 28.6108C16.4996 28.6564 17.0695 29.0894 17.2814 29.7086L20.0762 37.7897L22.9129 30.4082C23.1668 29.7488 23.819 29.3214 24.5149 29.3597C25.22 29.3871 25.8264 29.8675 26.0182 30.547L31.5968 50.125L34.7076 33.8953L34.8336 33.234L38.7152 12.9893C38.8614 12.2148 39.539 11.6577 40.3208 11.6577L70.6979 12.0102C71.6204 13.0514 72.4844 13.7931 73.2789 14.9365H41.6762L38.3572 32.2476" fill="white"></path><path d="M46.7558 43.4322C45.8699 43.4322 45.0753 42.9536 44.657 42.1645C44.6332 42.1188 44.6113 42.0713 44.5912 42.0238L41.0475 33.3674H37.0983C36.2216 33.3674 35.511 32.6568 35.511 31.7819C35.511 30.9069 36.2216 30.1963 37.0983 30.1963H41.5846C42.4687 30.1963 43.276 30.6822 43.6889 31.464C43.7126 31.5097 43.7345 31.5553 43.7546 31.6047L46.6645 38.714L50.073 27.8875C50.0858 27.8454 50.1004 27.8053 50.1168 27.7633C50.4748 26.8901 51.3133 26.3092 52.2558 26.2837C53.1892 26.2508 54.0678 26.7933 54.4715 27.6445C54.4843 27.6719 54.4971 27.6993 54.5062 27.7267L56.8425 33.4806H60.4794C61.3561 33.4806 62.0667 34.1912 62.0667 35.0662C62.0667 35.9411 61.3561 36.6517 60.4794 36.6517H56.3073C55.3922 36.6517 54.5483 36.1183 54.1574 35.2908C54.1446 35.2634 54.1318 35.236 54.1208 35.2086L52.4147 31.0074L49.008 41.8302C48.9953 41.8722 48.9806 41.9124 48.9642 41.9526C48.6117 42.8166 47.8134 43.3829 46.88 43.4303C46.8398 43.4322 46.7978 43.434 46.7576 43.434" fill="white"></path><path d="M76.9412 39.9396C76.3639 39.9396 75.8488 39.7223 75.4506 39.3113C75.0396 38.9131 74.8223 38.3979 74.8223 37.8207V15.395C74.8223 14.8123 75.0433 14.2936 75.4616 13.8935C75.8708 13.4898 76.3694 13.2761 76.9028 13.2761C76.9229 13.2761 76.943 13.2761 76.9631 13.2761L90.4748 13.3108C91.0556 13.3108 91.5744 13.5319 91.9744 13.9483C92.3781 14.3575 92.5918 14.869 92.5918 15.4279C92.5918 15.9869 92.3745 16.5257 91.9635 16.9367C91.5634 17.3368 91.0483 17.5468 90.4729 17.5468L79.0619 17.5158V24.4881H87.3201C87.8974 24.4881 88.4125 24.7054 88.8107 25.1146C89.2217 25.5128 89.439 26.0279 89.439 26.6051C89.439 27.1823 89.2217 27.6975 88.8107 28.0957C88.4125 28.5067 87.8974 28.724 87.3201 28.724H79.0619V37.8189C79.0619 38.3961 78.8445 38.9112 78.4335 39.3094C78.0335 39.7204 77.5202 39.936 76.943 39.936" fill="#26B474"></path><path d="M77.9641 37.8207C77.9641 38.1057 77.8618 38.3432 77.6572 38.5368C77.4635 38.7414 77.2261 38.8436 76.9411 38.8436C76.6562 38.8436 76.4187 38.7414 76.2251 38.5368C76.0205 38.3432 75.9182 38.1057 75.9182 37.8207V15.395C75.9182 15.1119 76.0205 14.8726 76.2251 14.679C76.4406 14.4635 76.6799 14.3612 76.9411 14.3721L90.4711 14.4068C90.756 14.4068 90.9935 14.5091 91.1871 14.7137C91.3917 14.9183 91.494 15.1576 91.494 15.4298C91.494 15.7019 91.3917 15.9577 91.1871 16.1622C90.9935 16.3559 90.756 16.4527 90.4711 16.4527L77.9641 16.4179V25.5859H87.3201C87.6051 25.5859 87.8425 25.6882 88.0362 25.8927C88.2407 26.0864 88.343 26.3257 88.343 26.6088C88.343 26.8919 88.2407 27.1312 88.0362 27.3248C87.8425 27.5294 87.6051 27.6317 87.3201 27.6317H77.9641V37.8226V37.8207Z" fill="#26B474"></path><path d="M107.802 39.9396H95.7373C95.1747 39.9396 94.6614 39.7369 94.2523 39.3515L94.2066 39.3058C93.8212 38.8984 93.6184 38.3852 93.6184 37.8207V15.4791C93.6184 14.9019 93.8303 14.3867 94.2285 13.9885C94.6395 13.5775 95.1601 13.3602 95.7373 13.3602C96.3145 13.3602 96.8205 13.5775 97.2297 13.9904C97.6261 14.3867 97.838 14.9037 97.838 15.4791V35.7183H107.802C108.378 35.7183 108.893 35.9301 109.293 36.3302C109.704 36.7393 109.921 37.2545 109.921 37.8207C109.921 38.387 109.704 38.9185 109.291 39.3295C108.893 39.7277 108.378 39.9378 107.802 39.9378" fill="#26B474"></path><path d="M95.737 14.458C96.0092 14.458 96.2485 14.5603 96.4512 14.7649C96.6449 14.9585 96.7417 15.1959 96.7417 15.4809V36.8161H107.802C108.085 36.8161 108.324 36.9129 108.516 37.1065C108.721 37.3111 108.823 37.5486 108.823 37.8226C108.823 38.0966 108.721 38.3505 108.516 38.555C108.323 38.7487 108.085 38.8437 107.802 38.8437H95.737C95.4521 38.8437 95.2091 38.7468 95.0027 38.555C94.8091 38.3505 94.7141 38.1075 94.7141 37.8226V15.4809C94.7141 15.1959 94.8091 14.9585 95.0027 14.7649C95.2073 14.5603 95.4521 14.458 95.737 14.458Z" fill="#26B474"></path><path d="M131.638 39.9396C130.738 39.9396 130.025 39.4611 129.685 38.6263L127.857 34.2314H116.879L115.047 38.6336C114.711 39.4592 113.998 39.9396 113.098 39.9396C112.814 39.9396 112.539 39.883 112.279 39.7698C111.75 39.5542 111.359 39.1615 111.147 38.6318C110.918 38.0966 110.922 37.5285 111.154 36.9933L113.434 31.5006L113.516 31.285L120.417 14.6352C120.444 14.5676 120.485 14.4781 120.532 14.3813L120.612 14.2205L120.757 14.0762C120.801 14.0214 120.839 13.9757 120.886 13.9301C120.934 13.8844 120.985 13.8406 121.065 13.7803C121.107 13.7474 121.16 13.7072 121.223 13.6652C121.451 13.5136 121.699 13.4131 121.96 13.3638L122.061 13.3456H122.165C122.236 13.3346 122.297 13.3291 122.368 13.3291C122.439 13.3291 122.503 13.3364 122.565 13.3456H122.647L122.739 13.3602C122.987 13.4022 123.221 13.4899 123.436 13.6177H123.517L123.833 13.9155C123.911 13.9885 123.97 14.0652 124.026 14.142L123.484 14.5475L124.198 14.3794C124.246 14.4762 124.286 14.5657 124.319 14.6461L131.3 31.4841V31.5006L133.585 37.0079C133.81 37.5303 133.812 38.0947 133.585 38.6299C133.373 39.1597 132.982 39.5542 132.451 39.7698C132.192 39.883 131.918 39.9396 131.633 39.9396M126.112 29.9936L122.368 20.9663L118.623 29.9936H126.111H126.112Z" fill="#26B474"></path><path d="M112.705 38.7596C112.444 38.6573 112.261 38.4747 112.161 38.2134C112.047 37.9522 112.047 37.691 112.161 37.4298L114.53 31.7216V31.7033L121.431 15.0534C121.453 14.9968 121.482 14.9347 121.517 14.8653L121.584 14.7977C121.617 14.752 121.641 14.7246 121.654 14.7119C121.665 14.7009 121.694 14.6772 121.74 14.6424C121.796 14.5968 121.818 14.5803 121.807 14.5913C121.92 14.5128 122.041 14.4616 122.165 14.4379H122.251C122.32 14.4269 122.359 14.4214 122.372 14.4214C122.384 14.4214 122.415 14.4269 122.474 14.4379H122.56C122.697 14.4616 122.821 14.5128 122.936 14.5913L123.004 14.6424C123.049 14.6881 123.078 14.7119 123.089 14.7119C123.102 14.7228 123.124 14.752 123.159 14.7977C123.205 14.8543 123.226 14.8763 123.226 14.8653C123.261 14.9347 123.289 14.9968 123.312 15.0534L130.215 31.7033V31.7216L132.582 37.4298C132.696 37.6928 132.696 37.9522 132.582 38.2134C132.48 38.4747 132.298 38.6573 132.038 38.7596C131.912 38.8162 131.782 38.8436 131.645 38.8436C131.191 38.8436 130.878 38.6336 130.708 38.2134L128.595 33.1354H116.154L114.04 38.2134C113.869 38.6336 113.556 38.8436 113.101 38.8436C112.964 38.8436 112.835 38.8162 112.709 38.7596M127.753 31.0895L122.368 18.1039L116.983 31.0895H127.753Z" fill="#26B474"></path><path d="M159.109 39.9396C158.555 39.9396 158.048 39.735 157.639 39.3496L157.617 39.3295L157.597 39.3076C157.211 38.9003 157.007 38.387 157.007 37.8207V23.0523L150.029 34.5748V34.7118L149.758 34.9986L149.718 35.0607L149.556 35.2196C149.53 35.2452 149.504 35.2707 149.479 35.2945L149.422 35.3474L149.384 35.3748L149.325 35.4333L149.209 35.5027C149.152 35.5374 149.068 35.5867 148.958 35.6269C148.933 35.6397 148.905 35.6507 148.878 35.6616C148.825 35.6854 148.772 35.7055 148.712 35.7256C148.639 35.7493 148.562 35.7694 148.482 35.7804C148.443 35.7895 148.405 35.7968 148.366 35.8005C148.271 35.8206 148.177 35.8297 148.082 35.8297C147.987 35.8297 147.89 35.8206 147.797 35.8005C147.756 35.795 147.716 35.7877 147.678 35.7786C147.599 35.7658 147.521 35.7475 147.444 35.7219C147.417 35.7128 147.389 35.7036 147.362 35.6927H146.472V35.0844L146.445 35.0588L146.41 35.0059L146.132 34.7282V34.5748L139.157 23.0505V37.8189C139.157 38.3815 138.952 38.8948 138.567 39.304L138.546 39.3259L138.525 39.346C138.117 39.7332 137.609 39.9378 137.054 39.9378C136.499 39.9378 135.976 39.7332 135.567 39.3478L135.545 39.3259L135.525 39.304C135.14 38.8966 134.937 38.3833 134.937 37.8189V15.4772C134.937 14.4708 135.52 13.7127 136.495 13.4479C136.698 13.3912 136.906 13.362 137.109 13.362C137.829 13.362 138.45 13.7273 138.857 14.3922L148.08 29.6337L157.299 14.3977C157.712 13.7273 158.331 13.3602 159.051 13.3602C159.253 13.3602 159.462 13.3894 159.673 13.4497C160.642 13.7127 161.224 14.4708 161.224 15.4772V37.8189C161.224 38.3943 161.007 38.9149 160.596 39.3259C160.198 39.7259 159.683 39.9378 159.105 39.9378" fill="#26B474"></path><path d="M138.064 37.8207C138.064 38.1057 137.968 38.3486 137.774 38.5532C137.571 38.7468 137.332 38.8436 137.058 38.8436C136.784 38.8436 136.53 38.7468 136.325 38.5532C136.132 38.3486 136.035 38.1057 136.035 37.8207V15.4791C136.035 14.9676 136.283 14.6443 136.784 14.5073C137.272 14.3703 137.653 14.5237 137.925 14.9676L148.082 31.7526L158.238 14.9676C158.51 14.5237 158.892 14.3703 159.379 14.5073C159.878 14.6425 160.128 14.9676 160.128 15.4791V37.8207C160.128 38.1057 160.026 38.3486 159.821 38.5532C159.628 38.7468 159.389 38.8436 159.105 38.8436C158.822 38.8436 158.594 38.7468 158.389 38.5532C158.196 38.3486 158.101 38.1057 158.101 37.8207V19.125L148.949 34.2405L148.933 34.2569V34.2734C148.911 34.2953 148.887 34.3245 148.865 34.3592C148.831 34.3921 148.809 34.4159 148.796 34.4268C148.774 34.4487 148.75 34.4725 148.726 34.4944C148.694 34.5182 148.664 34.5401 148.642 34.5638C148.586 34.5985 148.575 34.604 148.608 34.5803C148.619 34.5693 148.602 34.5748 148.557 34.5985C148.522 34.6204 148.489 34.6387 148.454 34.6497C148.432 34.6606 148.403 34.6716 148.368 34.6844C148.336 34.6953 148.301 34.7008 148.266 34.7008C148.244 34.7136 148.215 34.7191 148.18 34.7191C148.146 34.73 148.113 34.7373 148.078 34.7373C148.043 34.7373 148.009 34.7319 147.976 34.7191C147.943 34.7191 147.914 34.7136 147.892 34.7008C147.857 34.7008 147.822 34.6953 147.789 34.6844C147.755 34.6734 147.727 34.6625 147.703 34.6497C147.669 34.6387 147.636 34.6204 147.601 34.5985H147.566C147.566 34.5876 147.561 34.5803 147.55 34.5803C147.585 34.604 147.572 34.5985 147.515 34.5638C147.493 34.5419 147.464 34.5182 147.429 34.4944C147.408 34.4725 147.384 34.4487 147.362 34.4268C147.338 34.4049 147.316 34.3812 147.292 34.3592C147.269 34.3245 147.247 34.2971 147.225 34.2734V34.2569L147.208 34.2405L138.057 19.125V37.8207H138.064Z" fill="#26B474"></path><path d="M166.573 39.9396C165.995 39.9396 165.48 39.7223 165.082 39.3113C164.671 38.9131 164.456 38.398 164.456 37.8207V15.4955C164.456 14.9183 164.673 14.405 165.082 14.005C165.48 13.594 165.995 13.3766 166.574 13.3766C167.154 13.3766 167.667 13.594 168.065 14.005C168.476 14.4032 168.692 14.9183 168.692 15.4937V37.8189C168.692 38.3961 168.474 38.9112 168.063 39.3095C167.665 39.7204 167.15 39.9378 166.573 39.9378" fill="#26B474"></path><path d="M167.596 37.8207C167.596 38.1057 167.493 38.3431 167.289 38.5368C167.095 38.7414 166.858 38.8436 166.573 38.8436C166.288 38.8436 166.05 38.7414 165.857 38.5368C165.652 38.3431 165.55 38.1057 165.55 37.8207V15.4955C165.55 15.2124 165.652 14.9731 165.857 14.7813C166.05 14.5767 166.288 14.4744 166.573 14.4744C166.858 14.4744 167.095 14.5767 167.289 14.7813C167.493 14.9749 167.596 15.2124 167.596 15.4955V37.8207Z" fill="#26B474"></path><path d="M191.47 39.9396C191.344 39.9396 191.214 39.9287 191.084 39.9067L190.863 39.8538L190.719 39.7989L190.463 39.7186L190.357 39.609C190.321 39.5871 190.286 39.5652 190.253 39.5432L190.102 39.4373L190.014 39.3478C189.988 39.3222 189.963 39.2966 189.937 39.2711L189.85 39.1852L189.8 39.1231L176.17 21.5599V37.8207C176.17 38.3979 175.953 38.913 175.542 39.3131C175.142 39.7241 174.628 39.9396 174.051 39.9396C173.474 39.9396 172.961 39.7222 172.561 39.3131C172.15 38.9149 171.932 38.3998 171.932 37.8225V15.3786C171.932 14.4178 172.447 13.6871 173.348 13.3729C174.272 13.0569 175.136 13.3145 175.722 14.0817L189.366 31.643V15.3804C189.366 14.805 189.577 14.2881 189.976 13.8899C190.389 13.4789 190.904 13.2615 191.466 13.2615C192.029 13.2615 192.564 13.4789 192.975 13.8899C193.375 14.2899 193.585 14.805 193.585 15.3822V37.8938C193.585 37.9997 193.574 38.1038 193.55 38.2061C193.541 38.2627 193.529 38.3212 193.51 38.3797C193.49 38.4564 193.463 38.544 193.419 38.6372C193.379 38.7541 193.32 38.8637 193.249 38.966C193.233 38.9934 193.214 39.0208 193.196 39.0482C193.134 39.1414 193.068 39.2236 192.995 39.2948C192.981 39.3094 192.962 39.3277 192.939 39.3514L192.831 39.4501C192.818 39.461 192.805 39.4702 192.792 39.4793C192.783 39.4866 192.774 39.4957 192.763 39.503C192.703 39.5542 192.635 39.6017 192.562 39.6419C192.493 39.6839 192.422 39.7204 192.35 39.7496L192.202 39.8136C192.149 39.8318 192.091 39.8501 192.023 39.8665C191.959 39.8866 191.883 39.9049 191.797 39.9177C191.68 39.936 191.57 39.9451 191.464 39.9451M190.12 39.4354C190.12 39.4354 190.129 39.4446 190.135 39.4482L190.12 39.4354ZM193.415 38.65C193.415 38.65 193.41 38.6628 193.406 38.6683C193.408 38.6646 193.412 38.6573 193.415 38.65Z" fill="#26B474"></path><path d="M190.703 38.4856L190.686 38.4692L190.67 38.4527L175.078 18.3615V37.8225C175.078 38.1075 174.975 38.345 174.771 38.5386C174.577 38.7432 174.338 38.8455 174.055 38.8455C173.772 38.8455 173.532 38.7432 173.339 38.5386C173.134 38.345 173.032 38.1075 173.032 37.8225V15.3804C173.032 14.8909 173.258 14.5676 173.713 14.4086C174.179 14.2479 174.559 14.363 174.855 14.7484L190.463 34.8396V15.3786C190.463 15.0936 190.56 14.8543 190.754 14.6625C190.958 14.458 191.198 14.3557 191.47 14.3557C191.742 14.3557 191.998 14.458 192.202 14.6625C192.396 14.8562 192.493 15.0936 192.493 15.3786V37.8901C192.493 37.9248 192.487 37.9577 192.475 37.9924C192.475 38.0144 192.469 38.0436 192.458 38.0783C192.445 38.1239 192.436 38.1568 192.423 38.1806C192.412 38.2043 192.4 38.2317 192.389 38.2664C192.378 38.3011 192.359 38.3285 192.338 38.3523C192.325 38.376 192.308 38.4034 192.286 38.4381C192.264 38.4728 192.241 38.5002 192.217 38.524C192.206 38.5349 192.184 38.5587 192.149 38.5934C192.093 38.639 192.074 38.65 192.098 38.6281C192.12 38.6171 192.109 38.6281 192.064 38.6628C192.053 38.6738 192.036 38.6847 192.012 38.6975C191.978 38.7194 191.943 38.7377 191.91 38.7486C191.886 38.7596 191.864 38.7706 191.841 38.7834C191.806 38.7943 191.766 38.8053 191.722 38.8162C191.687 38.8272 191.665 38.8345 191.654 38.8345C191.585 38.8455 191.523 38.8528 191.466 38.8528C191.399 38.8528 191.329 38.8473 191.262 38.8345L191.194 38.8162C191.137 38.7943 191.092 38.7761 191.057 38.7651C191.046 38.7541 191.022 38.7359 190.989 38.7139C190.944 38.6902 190.904 38.6683 190.871 38.6445C190.858 38.6336 190.836 38.6171 190.801 38.5934C190.768 38.5587 190.734 38.524 190.699 38.4911" fill="#26B474"></path><path d="M216.231 39.9396C215.656 39.9396 215.134 39.7223 214.723 39.3113C214.525 39.1158 214.376 38.8911 214.273 38.6445C212.503 39.5049 210.562 39.9396 208.477 39.9396C204.817 39.9396 201.649 38.6208 199.061 36.0215C196.465 33.4386 195.146 30.2694 195.146 26.6088C195.146 22.9482 196.463 19.7753 199.063 17.176C201.651 14.5876 204.819 13.2761 208.477 13.2761C211.484 13.2761 214.213 14.2004 216.591 16.0252L216.61 16.0398C217.055 16.396 217.329 16.8746 217.402 17.4226C217.49 18.0016 217.344 18.5515 216.978 19.0136C216.628 19.4739 216.138 19.7534 215.559 19.8228C215.475 19.8338 215.384 19.8393 215.294 19.8393C214.838 19.8393 214.397 19.6895 214.021 19.4063C212.363 18.1295 210.552 17.5121 208.475 17.5121C205.951 17.5121 203.852 18.3871 202.06 20.1881C200.268 21.9801 199.397 24.0789 199.397 26.607C199.397 29.135 200.268 31.232 202.058 33.0221C203.849 34.8122 205.947 35.6836 208.475 35.6836C210.636 35.6836 212.485 35.046 214.111 33.7363V28.1103H206.653C206.088 28.1103 205.575 27.9075 205.167 27.5221L205.146 27.5002C204.735 27.0892 204.517 26.5686 204.517 25.9914C204.517 25.4142 204.738 24.8899 205.156 24.4899C205.566 24.0862 206.083 23.8725 206.653 23.8725H216.23C216.807 23.8725 217.327 24.0898 217.738 24.5027C218.137 24.9009 218.348 25.416 218.348 25.9914V37.8189C218.348 38.3943 218.137 38.9094 217.738 39.3094C217.329 39.7204 216.807 39.9378 216.231 39.9378" fill="#26B474"></path><path d="M199.838 35.2488C197.441 32.8632 196.243 29.9826 196.243 26.6088C196.243 23.235 197.441 20.3489 199.838 17.9523C202.223 15.5668 205.104 14.374 208.478 14.374C211.251 14.374 213.733 15.2142 215.925 16.8965C216.151 17.0774 216.283 17.3057 216.318 17.5779C216.363 17.861 216.294 18.1168 216.113 18.3451C215.943 18.5734 215.715 18.7031 215.432 18.7378C215.16 18.7725 214.909 18.7031 214.683 18.5332C212.853 17.1249 210.787 16.4198 208.48 16.4198C205.674 16.4198 203.277 17.419 201.288 19.4191C199.301 21.4065 198.307 23.8049 198.307 26.6106C198.307 29.4164 199.301 31.8129 201.288 33.8021C203.277 35.7913 205.674 36.785 208.48 36.785C211.115 36.785 213.399 35.9046 215.331 34.1437C215.547 33.9501 215.797 33.8606 216.08 33.8715C216.365 33.8843 216.603 33.9976 216.796 34.2131C216.977 34.4177 217.063 34.6625 217.052 34.9456C217.041 35.2287 216.933 35.468 216.729 35.6598C214.389 37.7842 211.64 38.8473 208.48 38.8473C205.106 38.8473 202.227 37.649 199.84 35.2525M215.499 38.5368C215.306 38.3432 215.209 38.1057 215.209 37.8207V27.0161H206.655C206.37 27.0161 206.127 26.9193 205.922 26.7257C205.718 26.5211 205.615 26.2764 205.615 25.9932C205.615 25.7101 205.718 25.4708 205.922 25.2772C206.127 25.0726 206.372 24.9703 206.655 24.9703H216.232C216.515 24.9703 216.76 25.0726 216.964 25.2772C217.158 25.4708 217.255 25.7083 217.255 25.9932V37.8207C217.255 38.1057 217.158 38.3432 216.964 38.5368C216.762 38.7414 216.515 38.8437 216.232 38.8437C215.949 38.8437 215.704 38.7414 215.499 38.5368Z" fill="#26B474"></path><path d="M232.422 39.9396C228.763 39.9396 225.594 38.6281 223.007 36.0397C220.419 33.4514 219.107 30.284 219.107 26.6252C219.107 22.9664 220.419 19.7972 223.007 17.2107C225.594 14.6242 228.763 13.3108 232.422 13.3108C236.08 13.3108 239.25 14.6224 241.836 17.2107C244.424 19.7972 245.736 22.9646 245.736 26.6252C245.736 30.2858 244.424 33.4532 241.836 36.0397C239.25 38.6263 236.08 39.9396 232.422 39.9396ZM232.422 17.5304C229.895 17.5304 227.798 18.4053 226.006 20.2064C224.214 21.9983 223.343 24.0971 223.343 26.6252C223.343 29.1533 224.213 31.2503 226.003 33.0404C227.793 34.8305 229.894 35.7018 232.42 35.7018C234.946 35.7018 237.045 34.8305 238.837 33.0404C240.64 31.2484 241.515 29.1496 241.515 26.6252C241.515 24.1008 240.64 22.0002 238.839 20.2119C237.043 18.4072 234.946 17.5304 232.42 17.5304" fill="#26B474"></path><path d="M232.421 38.8436C229.047 38.8436 226.167 37.6508 223.781 35.2652C221.396 32.8796 220.203 29.999 220.203 26.6252C220.203 23.2514 221.396 20.3708 223.781 17.9852C226.167 15.5996 229.047 14.4068 232.421 14.4068C235.795 14.4068 238.676 15.5996 241.061 17.9852C243.447 20.3708 244.64 23.2514 244.64 26.6252C244.64 29.999 243.447 32.8796 241.061 35.2652C238.676 37.6508 235.795 38.8436 232.421 38.8436ZM232.421 16.4344C229.616 16.4344 227.219 17.4335 225.23 19.4337C223.242 21.4211 222.249 23.8195 222.249 26.6252C222.249 29.4309 223.242 31.8275 225.23 33.8167C227.219 35.8041 229.616 36.7996 232.421 36.7996C235.227 36.7996 237.624 35.8059 239.613 33.8167C241.613 31.8293 242.612 29.4309 242.612 26.6252C242.612 23.8195 241.613 21.4211 239.613 19.4337C237.624 17.4335 235.227 16.4344 232.421 16.4344Z" fill="#26B474"></path><path d="M243.437 43.6441H75.5469V44.2542H243.437V43.6441Z" fill="#4D4C4D"></path><path d="M12.0477 54.0248L12.592 54.571L11.5033 56.6169L13.5967 55.5647L14.0314 56.0013L12.9756 58.0909L15.0214 57.0078L15.5548 57.5393L12.4313 59.0755L11.9892 58.6316L12.9829 56.5968L10.9462 57.5868L10.5042 57.1429L12.0477 54.0248Z" fill="#26B474"></path><path d="M16.5853 58.301L18.5653 59.7678L18.1817 60.2829L16.7752 59.2381L16.3788 59.7715L17.6191 60.6903L17.2374 61.2036L15.9971 60.2866L15.5897 60.8382L17.0163 61.8959L16.6346 62.411L14.6362 60.9296L16.5853 58.301Z" fill="#26B474"></path><path d="M21.6797 65.3409C21.4623 65.2386 21.2815 65.1035 21.1335 64.9354C20.9856 64.7692 20.876 64.5829 20.8066 64.3838C20.7371 64.1828 20.7079 63.9709 20.7207 63.7481C20.7335 63.5271 20.7901 63.3115 20.8906 63.0996L20.8942 63.0905C20.9965 62.8804 21.128 62.6996 21.2924 62.5535C21.4568 62.4055 21.6395 62.2941 21.8404 62.2192C22.0414 62.1443 22.2551 62.1114 22.4834 62.1205C22.7099 62.1297 22.9382 62.1899 23.1647 62.2995C23.3036 62.3653 23.4223 62.4366 23.5264 62.5133C23.6305 62.59 23.7182 62.6704 23.7913 62.7544C23.8662 62.8384 23.9283 62.9261 23.9794 63.0211C24.0324 63.1142 24.0762 63.211 24.1109 63.3115L23.4698 63.591C23.404 63.4321 23.3255 63.2951 23.2342 63.1782C23.1428 63.0613 23.0223 62.9681 22.8725 62.8969C22.7483 62.8384 22.6241 62.8074 22.4962 62.8037C22.3665 62.8019 22.2459 62.8238 22.129 62.8731C22.014 62.9206 21.908 62.9918 21.8112 63.0814C21.7162 63.1727 21.6395 63.2804 21.5774 63.4083L21.5737 63.4156C21.5135 63.5435 21.4769 63.6714 21.466 63.8047C21.4532 63.938 21.466 64.0641 21.4988 64.1846C21.5336 64.3034 21.592 64.413 21.6724 64.5134C21.7546 64.6121 21.8587 64.6925 21.9847 64.7527C22.1546 64.8331 22.3117 64.8715 22.4578 64.8642C22.604 64.8569 22.7592 64.8295 22.9273 64.7765L23.141 65.3921C23.0259 65.4377 22.9127 65.4724 22.8012 65.498C22.688 65.5236 22.5729 65.5382 22.4524 65.5382C22.3318 65.5382 22.2112 65.5217 22.0834 65.4907C21.9573 65.4596 21.8222 65.4103 21.6779 65.3409" fill="#26B474"></path><path d="M26.6517 63.7316L27.2819 63.9362L27.6015 67.5036L26.8855 67.2717L26.827 66.4807L25.51 66.0551L24.9986 66.6616L24.3008 66.4351L26.6498 63.7298L26.6517 63.7316ZM26.7795 65.7976L26.6919 64.6541L25.9521 65.5309L26.7795 65.7976Z" fill="#26B474"></path><path d="M29.8633 64.6778L31.3338 64.9464C31.7411 65.0194 32.0334 65.1875 32.2124 65.445C32.364 65.6624 32.4097 65.9236 32.3549 66.2323V66.2414C32.3055 66.5027 32.2033 66.7036 32.0443 66.8442C31.8872 66.9849 31.6991 67.0744 31.4799 67.1146L32.0553 68.406L31.2278 68.2562L30.7273 67.1L30.172 66.9977L29.9839 68.0279L29.2751 67.8982L29.8633 64.6797V64.6778ZM31.0031 66.5008C31.1785 66.5337 31.3192 66.5154 31.4288 66.4515C31.5365 66.3858 31.6041 66.2853 31.6279 66.1483V66.1392C31.6571 65.9876 31.6279 65.8633 31.5457 65.7683C31.4616 65.6752 31.3319 65.6113 31.1584 65.5784L30.4552 65.4505L30.2871 66.3693L31.005 66.5008H31.0031Z" fill="#26B474"></path><path d="M33.966 65.3208L36.4246 65.4651L36.3881 66.1044L34.6363 66.0003L34.598 66.6652L36.1378 66.7529L36.1013 67.3941L34.5615 67.3046L34.5213 67.9896L36.2931 68.0937L36.2566 68.733L33.7742 68.5869L33.966 65.3208Z" fill="#26B474"></path><path d="M40.1196 65.3299L42.5929 65.0176L42.6733 65.6679L40.916 65.8889L41.0037 66.5794L42.5527 66.3839L42.6331 67.0342L41.0841 67.2297L41.243 68.4846L40.5288 68.5759L40.1196 65.3299Z" fill="#26B474"></path><path d="M46.308 67.5932C46.065 67.6571 45.8294 67.6735 45.6011 67.6407C45.3727 67.6096 45.1663 67.5402 44.9782 67.4324C44.79 67.3246 44.6293 67.184 44.496 67.0086C44.3608 66.8333 44.264 66.6324 44.2037 66.4058V66.3967C44.1434 66.1702 44.1288 65.9474 44.1617 65.7282C44.1927 65.509 44.2658 65.3044 44.3754 65.1162C44.485 64.9281 44.633 64.7637 44.8174 64.6249C45.0019 64.4842 45.2156 64.3819 45.4586 64.318C45.7034 64.2541 45.939 64.2376 46.1655 64.2705C46.3938 64.3016 46.6002 64.3728 46.7884 64.4788C46.9747 64.5865 47.1355 64.7272 47.2725 64.9044C47.4076 65.0797 47.5044 65.2806 47.5629 65.5053V65.5144C47.625 65.7409 47.6378 65.9638 47.6067 66.183C47.5738 66.404 47.5026 66.6068 47.393 66.7949C47.2816 66.9831 47.1355 67.1475 46.951 67.2863C46.7683 67.427 46.5528 67.5292 46.308 67.5932ZM46.1509 66.9484C46.2879 66.9118 46.4103 66.8534 46.5144 66.7712C46.6185 66.689 46.7007 66.5922 46.7592 66.4807C46.8194 66.3675 46.856 66.2469 46.8706 66.1154C46.8852 65.9839 46.8761 65.8505 46.8414 65.7154V65.7063C46.803 65.5711 46.7482 65.4487 46.6678 65.3409C46.5893 65.2332 46.4961 65.1455 46.3865 65.0779C46.2769 65.0085 46.1564 64.9646 46.0249 64.9427C45.8933 64.9208 45.7582 64.9281 45.6193 64.9646C45.4769 65.0012 45.3563 65.0596 45.2522 65.1418C45.1499 65.224 45.0695 65.3208 45.0092 65.4323C44.949 65.5455 44.9143 65.6661 44.8978 65.7976C44.8832 65.9291 44.8923 66.0624 44.927 66.1976L44.9307 66.2067C44.9672 66.3419 45.0239 66.4643 45.1024 66.5739C45.1809 66.6817 45.2741 66.7693 45.3855 66.8369C45.4951 66.9045 45.6139 66.9502 45.7436 66.9721C45.8732 66.994 46.0102 66.9867 46.1509 66.9502" fill="#26B474"></path><path d="M48.4746 63.4558L49.8556 62.884C50.2392 62.7251 50.5752 62.7069 50.8639 62.8256C51.1086 62.9261 51.2913 63.1215 51.41 63.4083L51.4137 63.4174C51.516 63.6622 51.5379 63.8869 51.4831 64.0896C51.4265 64.2942 51.3187 64.4696 51.1543 64.623L52.3398 65.3975L51.5616 65.719L50.5131 65.0194L49.9907 65.2349L50.3908 66.203L49.7259 66.4789L48.4746 63.4558ZM50.42 64.3691C50.5844 64.3015 50.694 64.2102 50.7488 64.0969C50.8054 63.9837 50.8054 63.8613 50.7524 63.7334L50.7488 63.7243C50.6903 63.5818 50.599 63.4941 50.4784 63.4594C50.3561 63.4247 50.2136 63.443 50.0492 63.5106L49.3879 63.7846L49.746 64.6486L50.42 64.3691Z" fill="#26B474"></path><path d="M56.0573 61.8338L53.9128 60.8766L54.6143 60.4127L55.9916 61.0757L55.9276 59.5413L56.609 59.0902L56.6492 61.4246L57.3707 62.5115L56.7697 62.9097L56.0573 61.8338Z" fill="#26B474"></path><path d="M60.7446 59.9943C60.5528 60.1587 60.3482 60.2756 60.1308 60.3487C59.9116 60.4199 59.6943 60.4473 59.4787 60.4346C59.2632 60.4199 59.0568 60.3651 58.8595 60.2665C58.6604 60.1679 58.485 60.029 58.3334 59.8537L58.3261 59.8464C58.1727 59.6692 58.0631 59.4756 57.9973 59.2637C57.9297 59.0518 57.9042 58.8362 57.9206 58.6207C57.937 58.4033 57.9973 58.1914 58.1014 57.9832C58.2056 57.7768 58.3517 57.5905 58.5435 57.4261C58.7353 57.2617 58.9399 57.1429 59.1572 57.0717C59.3764 57.0005 59.592 56.9712 59.8075 56.9859C60.0231 57.0005 60.2295 57.0571 60.4286 57.1539C60.6259 57.2525 60.803 57.3914 60.9546 57.5667L60.9601 57.574C61.1117 57.7512 61.2213 57.9448 61.2889 58.1567C61.3565 58.3686 61.3821 58.5842 61.3656 58.8015C61.351 59.0189 61.2889 59.2308 61.1866 59.4372C61.0825 59.6436 60.9364 59.8299 60.7446 59.9943ZM60.3172 59.4865C60.4249 59.3934 60.509 59.2856 60.5656 59.1669C60.6222 59.0481 60.6533 58.9239 60.6569 58.7979C60.6624 58.67 60.6405 58.5458 60.5985 58.4198C60.5546 58.2956 60.487 58.1786 60.3939 58.0727L60.3884 58.0654C60.2971 57.9594 60.1911 57.8754 60.0742 57.8115C59.9555 57.7494 59.8331 57.711 59.7052 57.6983C59.5774 57.6855 59.4495 57.6982 59.3216 57.7366C59.1938 57.775 59.075 57.8407 58.9673 57.9339C58.8558 58.0289 58.7718 58.1366 58.717 58.2554C58.6604 58.3741 58.6312 58.4965 58.6275 58.6225C58.622 58.7504 58.6421 58.8764 58.686 59.0006C58.7298 59.1248 58.7974 59.2417 58.8887 59.3477L58.896 59.355C58.9874 59.461 59.0933 59.5468 59.2102 59.6089C59.3289 59.671 59.4513 59.7094 59.5792 59.7222C59.7071 59.7349 59.8349 59.7221 59.961 59.6856C60.087 59.6491 60.2057 59.5815 60.3172 59.4865Z" fill="#26B474"></path><path d="M64.2624 56.5127C63.9719 56.8415 63.6504 57.0224 63.3034 57.0498C62.9526 57.079 62.5983 56.9329 62.2348 56.6132L60.8337 55.3766L61.3087 54.8359L62.6969 56.0616C62.8978 56.2387 63.0896 56.3264 63.2741 56.3228C63.4586 56.3191 63.623 56.2333 63.771 56.067C63.9153 55.9008 63.9829 55.7291 63.9664 55.5483C63.95 55.3674 63.844 55.1921 63.6486 55.0185L62.2439 53.7783L62.7207 53.2376L64.1053 54.4596C64.2916 54.624 64.4322 54.792 64.5254 54.9656C64.6185 55.1373 64.6697 55.3108 64.6806 55.4862C64.6916 55.6615 64.6587 55.8351 64.5875 56.0086C64.5162 56.1821 64.4067 56.3502 64.2624 56.5146" fill="#26B474"></path></g><path d="M84.4125 47.332V53.4695H82.9914V50.9524H80.2021V53.4695H78.781V47.332H80.2021V49.7523H82.9914V47.332H84.4125Z" fill="#F16160"></path><path d="M94.53 52.3297V53.4695H89.7771V47.332H94.4149V48.4719H91.1873V49.8053H94.0368V50.9104H91.1873V52.3316H94.5282L94.53 52.3297Z" fill="#F16160"></path><path d="M103.612 52.1543H100.763L100.218 53.4695H98.7625L101.499 47.332H102.902L105.647 53.4695H104.157L103.612 52.1543ZM103.166 51.0748L102.193 48.7239L101.219 51.0748H103.166Z" fill="#F16160"></path><path d="M110.197 47.332H111.618V52.3133H114.696V53.4714H110.197V47.3338V47.332Z" fill="#F16160"></path><path d="M120.105 48.4883H118.141V47.3302H123.49V48.4883H121.526V53.4696H120.105V48.4883Z" fill="#F16160"></path><path d="M133.783 47.332V53.4695H132.362V50.9524H129.572V53.4695H128.151V47.332H129.572V49.7523H132.362V47.332H133.783Z" fill="#F16160"></path><path d="M138.762 50.4008C138.762 48.5504 140.183 47.2261 142.094 47.2261C143.155 47.2261 144.041 47.6115 144.62 48.3129L143.709 49.155C143.296 48.6819 142.779 48.4353 142.165 48.4353C141.016 48.4353 140.202 49.2427 140.202 50.399C140.202 51.5552 141.016 52.3626 142.165 52.3626C142.779 52.3626 143.296 52.1178 143.709 51.6356L144.62 52.4777C144.041 53.1882 143.155 53.5737 142.087 53.5737C140.183 53.5737 138.764 52.2493 138.764 50.399L138.762 50.4008Z" fill="#F16160"></path><path d="M153.406 52.1543H150.557L150.012 53.4695H148.557L151.293 47.332H152.696L155.441 53.4695H153.951L153.406 52.1543ZM152.959 51.0748L151.985 48.7239L151.012 51.0748H152.959Z" fill="#F16160"></path><path d="M163.9 53.4695L162.717 51.7598H161.411V53.4695H159.99V47.332H162.645C164.286 47.332 165.311 48.1832 165.311 49.5587C165.311 50.4793 164.847 51.1552 164.048 51.4968L165.426 53.4695H163.9ZM162.567 48.4883H161.409V50.6273H162.567C163.435 50.6273 163.873 50.2236 163.873 49.5569C163.873 48.8901 163.435 48.4865 162.567 48.4865V48.4883Z" fill="#F16160"></path><path d="M175.098 52.3297V53.4695H170.345V47.332H174.983V48.4719H171.755V49.8053H174.604V50.9104H171.755V52.3316H175.096L175.098 52.3297Z" fill="#F16160"></path><path d="M186.144 50.4008C186.144 48.5504 187.565 47.2261 189.475 47.2261C190.537 47.2261 191.423 47.6115 192.002 48.3129L191.09 49.155C190.677 48.6819 190.16 48.4353 189.547 48.4353C188.398 48.4353 187.583 49.2427 187.583 50.399C187.583 51.5552 188.398 52.3626 189.547 52.3626C190.16 52.3626 190.677 52.1178 191.09 51.6356L192.002 52.4777C191.423 53.1882 190.537 53.5737 189.468 53.5737C187.565 53.5737 186.145 52.2493 186.145 50.399L186.144 50.4008Z" fill="#F16160"></path><path d="M201.619 52.3297V53.4695H196.866V47.332H201.504V48.4719H198.276V49.8053H201.126V50.9104H198.276V52.3316H201.617L201.619 52.3297Z" fill="#F16160"></path><path d="M212.29 47.332V53.4695H211.125L208.065 49.7432V53.4695H206.662V47.332H207.837L210.889 51.0584V47.332H212.292H212.29Z" fill="#F16160"></path><path d="M218.918 48.4883H216.955V47.3302H222.303V48.4883H220.34V53.4696H218.918V48.4883Z" fill="#F16160"></path><path d="M230.878 53.4695L229.694 51.7598H228.388V53.4695H226.967V47.332H229.623C231.263 47.332 232.288 48.1832 232.288 49.5587C232.288 50.4793 231.824 51.1552 231.026 51.4968L232.403 53.4695H230.878ZM229.544 48.4883H228.386V50.6273H229.544C230.412 50.6273 230.85 50.2236 230.85 49.5569C230.85 48.8901 230.412 48.4865 229.544 48.4865V48.4883Z" fill="#F16160"></path><path d="M242.075 52.3297V53.4695H237.322V47.332H241.96V48.4719H238.732V49.8053H241.582V50.9104H238.732V52.3316H242.073L242.075 52.3297Z" fill="#F16160"></path><mask id="mask2_2101_1369" style="mask-type:luminance" maskUnits="userSpaceOnUse" x="-42" y="-22" width="333" height="115"><path d="M291 -22H-41.6699V92.0263H291V-22Z" fill="white"></path></mask><g mask="url(#mask2_2101_1369)"><path d="M245.781 11.528L247.277 11.5244C247.694 11.5244 248.01 11.6339 248.231 11.855C248.419 12.0413 248.512 12.2897 248.514 12.6021V12.6112C248.514 12.8761 248.45 13.0916 248.32 13.2597C248.19 13.4259 248.022 13.5483 247.814 13.6286L248.616 14.7959H247.774L247.071 13.751H246.504V14.7995H245.785L245.779 11.5298L245.781 11.528ZM247.23 13.1135C247.407 13.1099 247.542 13.066 247.635 12.9802C247.73 12.8943 247.774 12.7829 247.772 12.6423V12.6331C247.769 12.4779 247.717 12.3628 247.615 12.2879C247.513 12.2112 247.374 12.1765 247.197 12.1783L246.483 12.1929L246.501 13.1282L247.23 13.1135Z" fill="#26B474"></path><path d="M250.324 13.2414C250.324 15.0681 248.843 16.5495 247.016 16.5495C245.19 16.5495 243.71 15.0681 243.71 13.2414C243.71 11.4148 245.191 9.93335 247.016 9.93335C248.841 9.93335 250.324 11.4148 250.324 13.2414Z" stroke="#26B474" stroke-miterlimit="10"></path></g></g><defs><clipPath id="clip0_2101_1369"><rect width="255" height="71" fill="white"></rect></clipPath></defs></svg>