<?xml version="1.0" encoding="UTF-8"?> <svg xmlns="http://www.w3.org/2000/svg" width="60" height="60" viewBox="0 0 60 60" fill="none"><mask id="mask0_604_839" style="mask-type:luminance" maskUnits="userSpaceOnUse" x="4" y="2" width="52" height="53"><path d="M4.09161 28.1448C4.09161 42.5844 15.6908 54.2896 29.9998 54.2896C44.3087 54.2896 55.9079 42.5844 55.9079 28.1448C55.9079 13.7052 44.3087 2 29.9998 2C15.6908 2 4.09161 13.7036 4.09161 28.1448Z" fill="white"></path></mask><g mask="url(#mask0_604_839)"><path d="M45.433 31.159L38.711 35.8086L42.9611 52.1665L46.3282 31.0229L45.433 31.159Z" fill="#5BCAE9"></path><path d="M29.3397 42.2909L42.9625 52.1665L38.7124 35.8071L29.3397 42.2909Z" fill="#05AAB5"></path><path d="M14.8047 41.354C16.739 41.1507 18.5702 40.5546 20.0591 39.3532L18.6565 38.9099L14.8047 41.354Z" fill="#F47427"></path><path d="M29.3383 42.2909L27.3723 43.4052C25.2139 47.5825 22.0528 50.6044 19.0462 54.4348L20.6972 55.3962L42.9596 52.1665L29.3368 42.2909H29.3383Z" fill="#FBB040"></path><path d="M27.8678 42.3872C27.7103 42.7342 27.5452 43.0735 27.374 43.4052L29.34 42.2909L27.8693 42.3872H27.8678Z" fill="#F79422"></path><path d="M46.6048 30.9801L51.4259 43.6574L50.1339 30.4406L46.6048 30.9801Z" fill="#128DA9"></path><path d="M13.9897 37.4319L12.3372 41.4197C13.1657 41.4564 13.9927 41.438 14.8031 41.354L18.6533 38.9099L13.9897 37.4334V37.4319Z" fill="#DA3727"></path><path d="M42.9622 52.1664L44.3557 52.4431L52.8771 47.4786L51.4261 43.6573L42.9622 52.1664Z" fill="#00B7D4"></path><path d="M46.3293 31.0229L42.9622 52.1665L51.4261 43.6574L46.605 30.9801L46.3293 31.0229Z" fill="#06A8B1"></path><path d="M20.6995 55.3962L24.3301 57.5116C26.0492 58.5143 28.0092 59.0401 29.9949 59.0401C31.9806 59.0401 33.936 58.5143 35.6567 57.5116L37.6833 56.3301L42.9619 52.1665L20.6995 55.3962Z" fill="#F79422"></path><path d="M39.5654 32.0562L37.2495 30.1777L38.7112 35.8086L45.4332 31.159L39.5654 32.0562Z" fill="#00A8CB"></path><path d="M28.7174 40.2213C28.5235 40.8006 28.3115 41.357 28.0828 41.8935L29.3369 42.2909L28.7159 40.2213H28.7174Z" fill="#F79A22"></path><path d="M20.0565 39.3532C20.9138 38.6623 21.656 37.7681 22.2391 36.634L18.6539 38.9084L20.0565 39.3516V39.3532Z" fill="#F79A22"></path><path d="M37.6839 56.3301L43.6168 52.8742L42.9625 52.1665L37.6839 56.3301Z" fill="#FFC317"></path><path d="M51.4252 43.6574L55.4799 45.513C57.5792 43.3945 58.8121 40.4858 58.8121 37.4196V36.7043L58.5607 36.4842L51.4252 43.6574Z" fill="#327A8A"></path><path d="M50.1331 30.4405L51.4251 43.6574L58.5607 36.4842L53.0049 31.6328L51.416 30.2449L50.1331 30.4405Z" fill="#00A8CB"></path><path d="M43.6165 52.8742L44.3557 52.4431L42.9622 52.1665L43.6165 52.8742Z" fill="#F99F1B"></path><path d="M52.8762 47.4786L53.1443 47.3227C54.0077 46.8198 54.7892 46.21 55.4799 45.5145L51.4252 43.6589L52.8762 47.4786Z" fill="#0DACB8"></path><path d="M1.17322 37.4196C1.17322 37.7895 1.19139 38.1579 1.22775 38.5232C2.01537 38.7907 2.78178 39.1025 3.52093 39.4632C4.872 39.9722 6.66233 40.5469 8.62077 40.9443L1.17322 34.4421V37.4196Z" fill="#EE2238"></path><path d="M1.17322 33.3752V34.4421L8.62077 40.9443C9.81886 41.1873 11.0775 41.3647 12.3377 41.4197L13.9902 37.4319L1.17322 33.3752Z" fill="#EE5B2F"></path><path d="M25.4341 29.2713C25.9476 28.1784 26.452 27.1589 26.9457 26.2097L24.4178 25.8841L25.4341 29.2713Z" fill="#00A8CB"></path><path d="M34.0916 27.6159C33.6342 28.3801 33.1995 29.1597 32.7905 29.9392L35.1276 28.4566L34.0916 27.6159Z" fill="#00A8CB"></path><path d="M38.7129 35.8086L30.6897 34.4269C30.0051 36.0822 29.4795 37.5939 29.1463 38.7953C29.016 39.2875 28.8721 39.7613 28.7177 40.2214L29.3387 42.2909L38.7113 35.8071L38.7129 35.8086Z" fill="#0F8FA4"></path><path d="M37.2495 30.1777L35.1275 28.4566L32.7903 29.9392C31.9861 31.4707 31.2787 33.0023 30.6895 34.4268L38.7126 35.8086L37.251 30.1777H37.2495Z" fill="#00B7D4"></path><path d="M11.6274 33.791L9.79009 34.7769L1.17322 33.1582V33.3753L13.9887 37.4319L11.6274 33.791Z" fill="#EC2145"></path><path d="M11.6281 33.791L13.9895 37.4319L16.3478 31.2598L11.6281 33.791Z" fill="#0DACB8"></path><path d="M23.5446 25.7726L20.5516 28.1386L13.9886 37.4334L23.0069 34.8395C23.8369 32.796 24.6458 30.9465 25.4319 29.2728L24.4155 25.8857L23.5446 25.7741V25.7726Z" fill="#00B7D4"></path><path d="M18.6545 38.9084L22.2397 36.634C22.3972 36.3253 22.5456 36.0027 22.6789 35.6588C22.7895 35.3807 22.8985 35.1086 23.0091 34.838L13.9908 37.4319L18.6545 38.9084Z" fill="#05AAB5"></path><path d="M11.5383 12.1706L5.67512 7.91983C3.31831 9.72039 1.7461 12.3937 1.30231 15.3345L2.16415 18.6529L11.5383 12.169V12.1706Z" fill="#05AAB5"></path><path d="M22.2214 15.5531L29.3796 11.0089L11.5385 12.1706L22.2214 15.5531Z" fill="#F47427"></path><path d="M28.0465 2.81467L36.4801 -1.9649H27.2695L20.8686 -1.03559L6.83532 7.14029C6.4294 7.37721 6.04316 7.63705 5.67358 7.91982L11.5368 12.1705L28.045 2.8162L28.0465 2.81467Z" fill="#F3712A"></path><path d="M11.5385 12.1705L29.3796 11.0089L28.0467 2.81467L11.5385 12.1705Z" fill="#F79422"></path><path d="M36.4808 -1.9649L28.0487 2.81467L29.3801 11.0089L38.0485 -0.381392L36.4808 -1.9649Z" fill="#F79A22"></path><path d="M26.8862 17.0296L29.3793 11.0089L22.2211 15.5531L26.8862 17.0296Z" fill="#DA3727"></path><path d="M29.3793 11.0089L37.0555 13.9772C38.1673 13.4484 39.0867 13.2864 39.791 13.216C41.7373 12.7651 41.3375 10.2508 44.082 11.8282C45.0317 12.3326 45.371 12.9333 46.2722 13.67L48.3746 10.0429L29.3793 11.0104V11.0089Z" fill="#EF4237"></path><path d="M29.3793 11.0089L48.3761 10.0414L38.0476 -0.381378L29.3793 11.0089Z" fill="#FBB416"></path><path d="M2.16458 18.6529L1.17249 19.3392V25.9835L4.31236 26.9189L2.16458 18.6529Z" fill="#00A8CB"></path><path d="M4.31236 26.9189L1.17249 25.9835V28.3618L4.63044 28.1432L4.31236 26.9189Z" fill="#0DACB8"></path><path d="M1.17322 28.3618V30.436L4.63117 28.1432L1.17322 28.3618Z" fill="#058AA0"></path><path d="M22.2214 15.5531L11.5385 12.1706L14.0983 20.7072L22.2214 15.5531Z" fill="#F79A22"></path><path d="M46.84 17.8721C49.4801 17.4564 47.6716 18.7021 46.84 17.8721L58.8124 22.3854V17.0403C58.8124 14.8164 58.1627 12.6749 57.0039 10.856L46.84 17.8721Z" fill="#8F1733"></path><path d="M53.1477 7.14031L51.7103 6.30423L48.375 10.0414L46.2727 13.6685C46.6165 13.9497 46.7741 14.6452 47.3466 14.9677C47.8752 15.3452 49.3505 16.4595 49.9185 17.0296L57.0025 10.8576C56.0407 9.35051 54.7305 8.06505 53.1477 7.14184" fill="#EE223A"></path><path d="M48.3763 10.0413L47.6144 3.91516L38.7204 -1.26642L38.0479 -0.381423L48.3763 10.0413Z" fill="#F99D20"></path><path d="M51.7122 6.30421L50.5959 5.65308L48.377 10.0414L51.7122 6.30421Z" fill="#F0494B"></path><path d="M50.5964 5.65311L47.6155 3.91675L48.3774 10.0414L50.5964 5.65311Z" fill="#F58220"></path><path d="M39.5659 32.0562L45.4336 31.1589L46.3288 31.0229L46.6045 30.9801L50.1336 30.4406L51.4165 30.2449L41.6212 21.693L39.5659 32.0562Z" fill="#EE4557"></path><path d="M37.2497 30.1777L39.5656 32.0562L41.6225 21.693L35.2064 25.8551C34.8232 26.4283 34.4506 27.0183 34.0931 27.6159L35.1292 28.4566L37.2512 30.1777H37.2497Z" fill="#D61E44"></path><path d="M41.6212 21.693L46.365 18.3517C46.0757 18.3716 45.7683 18.3884 45.4381 18.4007C44.7595 18.3441 44.087 18.4129 43.4221 18.5856L41.6212 21.693Z" fill="#D61E44"></path><path d="M34.6191 15.5821C35.5113 14.8347 36.3262 14.3257 37.0577 13.9772L29.3815 11.0089L34.6207 15.5821H34.6191Z" fill="#EE2238"></path><path d="M41.6216 21.693L43.4225 18.5856C42.2744 18.8837 41.152 19.4966 40.069 20.3373L41.6216 21.6915V21.693Z" fill="#EE2238"></path><path d="M51.4164 30.2449L53.0053 31.6328L58.2702 26.9648L41.6212 21.693L51.4164 30.2449Z" fill="#EE204A"></path><path d="M53.0042 31.6328L58.5584 36.4842L58.8113 36.7043V36.232V27.2521V27.136V26.4848L58.2691 26.9648L53.0042 31.6328Z" fill="#D61E44"></path><path d="M26.886 17.0296L31.7571 18.5719C32.7825 17.291 33.7368 16.3189 34.6183 15.5821L29.3791 11.0089L26.886 17.0296Z" fill="#EE5B2F"></path><path d="M41.6209 21.693L40.0684 20.3388C39.8155 20.536 39.564 20.7438 39.3171 20.9639L41.6209 21.693Z" fill="#EE5B2F"></path><path d="M47.9418 18.1836C47.498 18.2539 46.9755 18.3105 46.365 18.3517L41.6212 21.693L58.2702 26.9648L58.811 26.4833V22.3839L47.9403 18.1821L47.9418 18.1836Z" fill="#E8213D"></path><path d="M51.4155 30.2449L53.0043 31.6328" stroke="#D61E44" stroke-width="0.160068" stroke-linecap="round" stroke-linejoin="round"></path><path d="M58.5599 36.4842L53.0042 31.6343" stroke="#C51F42" stroke-width="0.160068" stroke-linecap="round" stroke-linejoin="round"></path><path d="M14.0991 20.7072L4.31293 26.9189L4.63252 28.1448L17.139 30.8364L14.0991 20.7072Z" fill="#00A8CB"></path><path d="M17.1383 30.8365L16.3476 31.2599L13.9908 37.4319L20.5538 28.1372L23.5453 25.7711L26.8866 17.0296L17.1383 30.8365Z" fill="#049CB2"></path><path d="M17.1385 30.8364L4.63196 28.1432L1.17249 30.4345V32.2686L17.1385 30.8364Z" fill="#00B7D4"></path><path d="M11.6274 33.791L16.347 31.2598L17.1377 30.8364L1.17322 32.2686V33.1582L9.79009 34.7769L11.6274 33.791Z" fill="#3BC5ED"></path><path d="M11.5383 12.1706L2.16406 18.6529L14.098 20.7072L11.5383 12.1706Z" fill="#0F8FA4"></path><path d="M14.098 20.7072L2.16406 18.6529L4.31184 26.9189L14.098 20.7072Z" fill="#00B7D4"></path><path d="M29.7244 21.4042C30.4288 20.322 31.1073 19.385 31.7571 18.5719L26.886 17.0296L29.7244 21.4042Z" fill="#EC2145"></path><path d="M41.6215 21.693L39.3177 20.9639C37.844 22.2738 36.4581 23.9812 35.2054 25.8551L41.6215 21.693Z" fill="#EC2145"></path><path d="M26.8868 17.0296L23.5455 25.7726L24.4164 25.8842L26.9444 26.2097C27.9107 24.3541 28.8392 22.7645 29.7253 21.4042L26.8868 17.0296Z" fill="#0DACB8"></path><path d="M17.1381 30.8365L26.8864 17.0296L14.0981 20.7072L17.1381 30.8365Z" fill="#00B7D4"></path><path d="M14.0981 20.7071L26.8864 17.0296L22.2212 15.5531L14.0981 20.7071Z" fill="#05AAB5"></path><path d="M29.5871 21.1917L26.9455 26.2097L32.789 29.9392L34.0916 27.6159L29.5871 21.1917Z" fill="#00B7D4"></path><path d="M28.7179 40.2214L27.0002 34.7769L30.6884 34.4269L28.7179 40.2214Z" fill="#00B7D4"></path><path d="M22.2399 36.634L29.3391 42.2909L26.999 34.7769L25.3359 28.9472L22.2399 36.634Z" fill="#05AAB5"></path><path d="M30.6903 34.4268L32.7896 29.9392L26.9461 26.2097L25.4329 29.2712L26.9991 34.7769L30.6903 34.4268Z" fill="#05AAB5"></path><path d="M39.3178 20.9639L31.6309 18.3517L29.7255 21.4041L34.0922 27.6159L39.3178 20.9639Z" fill="#EE4557"></path><path d="M43.4213 18.5872L37.855 13.2145L34.4379 15.3758L39.3166 20.964L43.4213 18.5872Z" fill="#EE4557"></path><path d="M39.3169 20.9639L34.4382 15.3758L31.7573 18.5719L39.3169 20.9639Z" fill="#EE204A"></path><path d="M49.92 17.0296L46.2742 13.6685L40.4701 16.0728L43.4222 18.5871L49.0158 18.1836L49.92 17.0296Z" fill="#EE204A"></path><path d="M40.069 12.0085L40.4704 16.0728L44.5115 14.3975L40.069 12.0085Z" fill="#E8213D"></path><path d="M42.522 10.4158L40.8892 12.649L46.3904 13.4652L42.522 10.4158Z" fill="#EF4237"></path><path d="M36.4806 13.6685L38.0483 17.3368L40.4702 16.0728L40.1991 12.5618L36.4806 13.6685Z" fill="#EE223A"></path><path d="M46.2729 13.6684L44.5114 14.3975L41.3427 12.6933L46.4895 13.2955L46.2729 13.6684Z" fill="#EF4237"></path><path d="M1.22723 38.5232L19.0487 54.4347L20.4391 48.8435L1.22723 38.5232Z" fill="#EE5B2F"></path><path d="M22.24 36.634L29.3392 42.2909L27.3747 43.4052L20.0574 39.3532L22.24 36.634Z" fill="#F79A22"></path><path d="M14.8047 41.3539L27.3749 43.4052L20.0576 39.3531L14.8047 41.3539Z" fill="#F47427"></path><path d="M8.62026 40.9443L11.8813 44.2474L1.22723 38.5232L8.62026 40.9443Z" fill="#EE2238"></path><path d="M11.881 44.2474L12.337 41.4197L8.62 40.9443L11.881 44.2474Z" fill="#EE5B2F"></path><path d="M14.8037 41.3539L13.8101 45.2837L11.8804 44.2474L12.3363 41.4197L14.8037 41.3539Z" fill="#EE2238"></path><path d="M20.4381 48.8435L22.7374 50.0037L19.0477 54.4347L20.4381 48.8435Z" fill="#F3712A"></path><path d="M28.0716 43.4052L14.8047 41.3524L22.7385 50.0037L28.0716 43.4052Z" fill="#F79422"></path><path d="M13.811 45.2837L23.0095 50.3002L14.8046 41.3539L13.811 45.2837Z" fill="#EE5B2F"></path></g><path d="M30.5233 30.6469L27.0305 49.0484C26.9124 49.672 26.3853 50.1321 25.7567 50.1581C25.737 50.1581 25.7158 50.1627 25.6961 50.1627C25.0918 50.1627 24.5556 49.7576 24.3874 49.1646L19.3134 31.188L17.0868 37.0345C16.8839 37.5725 16.3598 37.9271 15.7948 37.9118C15.2238 37.9057 14.7209 37.5343 14.5346 36.9886L12.043 29.7283L10.9858 31.8269C10.754 32.287 10.286 32.5774 9.77558 32.5774H0.0106026C0.00454396 32.3267 0 32.0761 0 31.8223V30.5873C0 30.3336 0.00454396 30.0845 0.0106026 29.8338H8.941L11.0691 25.606C11.3175 25.1153 11.831 24.8203 12.3747 24.8586C12.9185 24.8968 13.3911 25.259 13.5668 25.7772L15.8842 32.5392L18.2364 26.3626C18.447 25.8108 18.9877 25.4547 19.5648 25.4852C20.1494 25.5082 20.6523 25.9102 20.8113 26.4788L25.4371 42.8611L28.0166 29.282L28.1211 28.7287L31.3397 11.7885C31.4624 11.1404 32.0228 10.6742 32.6711 10.6742L57.8598 10.9692C58.6247 11.8404 59.3411 12.461 60 13.4178H33.795L31.0428 27.9033" fill="white"></path><path d="M38.0103 37.2592C37.2757 37.2592 36.6168 36.8587 36.27 36.1984C36.2503 36.1602 36.2306 36.1204 36.2154 36.0807L33.277 28.8372H30.0023C29.2753 28.8372 28.6861 28.2426 28.6861 27.5089C28.6861 26.7753 29.2753 26.1822 30.0023 26.1822H33.7223C34.4554 26.1822 35.1249 26.5888 35.4672 27.243C35.4869 27.2812 35.5051 27.3194 35.5217 27.3607L37.9346 33.3096L40.7609 24.2502C40.7715 24.2151 40.7836 24.1799 40.7973 24.1463C41.0941 23.4157 41.7894 22.9296 42.5709 22.9082C43.3449 22.8807 44.0735 23.3346 44.4082 24.0469C44.4188 24.0698 44.4294 24.0928 44.437 24.1142L46.3742 28.9289H49.3899C50.1169 28.9289 50.7061 29.5235 50.7061 30.2556C50.7061 30.9878 50.1169 31.5839 49.3899 31.5839H45.9304C45.1716 31.5839 44.4718 31.1376 44.1477 30.4452C44.1371 30.4222 44.128 30.3993 44.1174 30.3764L42.7027 26.8609L39.8779 35.9172C39.8673 35.9523 39.8552 35.9859 39.8415 36.0196C39.5492 36.7425 38.8858 37.2164 38.1118 37.2561C38.0785 37.2576 38.0451 37.2592 38.0103 37.2592Z" fill="white"></path><path d="M9.23063 46.1228L9.68199 46.5799L8.77926 48.2918L10.5151 47.4114L10.8755 47.7751L10.0001 49.5252L11.6965 48.6189L12.1388 49.0636L9.5487 50.3491L9.18216 49.9777L10.0061 48.2749L8.31729 49.1034L7.95074 48.732L9.23063 46.1228Z" fill="#26B474"></path><path d="M12.9922 49.701L14.6341 50.9284L14.316 51.3594L13.1497 50.4851L12.821 50.9315L13.8495 51.7003L13.5329 52.1298L12.5045 51.3625L12.1667 51.8241L13.3496 52.7091L13.0331 53.1401L11.3776 51.9005L12.9922 49.701Z" fill="#26B474"></path><path d="M17.2172 55.5918C17.0384 55.5062 16.887 55.3931 16.7643 55.2525C16.6416 55.1134 16.5507 54.959 16.4932 54.7909C16.4356 54.6228 16.4114 54.4455 16.422 54.259C16.4326 54.074 16.4795 53.8937 16.5628 53.7164L16.5659 53.7087C16.6507 53.5329 16.7597 53.3816 16.8961 53.2578C17.0324 53.134 17.1839 53.0408 17.3505 52.9781C17.5171 52.9154 17.6943 52.8879 17.8836 52.8956C18.0714 52.9032 18.2608 52.9536 18.4486 53.0454C18.5622 53.1004 18.6622 53.16 18.7485 53.2242C18.8348 53.2884 18.9075 53.3556 18.9681 53.4259C19.0302 53.4963 19.0817 53.5696 19.1241 53.6491C19.1665 53.7271 19.2044 53.8081 19.2332 53.8921L18.7015 54.126C18.647 53.993 18.5819 53.8784 18.5061 53.7806C18.4304 53.6827 18.3304 53.6048 18.2062 53.5452C18.1032 53.4963 18.0003 53.4703 17.8942 53.4672C17.7867 53.4657 17.6867 53.484 17.5898 53.5253C17.4944 53.565 17.4065 53.6247 17.3262 53.6995C17.2475 53.776 17.1839 53.8662 17.1324 53.9732L17.1293 53.9793C17.0793 54.0863 17.049 54.1932 17.04 54.3048C17.0294 54.4164 17.04 54.5219 17.0672 54.6228C17.096 54.7221 17.1445 54.8138 17.2126 54.8979C17.2808 54.9804 17.3671 55.0477 17.4716 55.0981C17.6125 55.1654 17.7428 55.1975 17.8639 55.1913C17.9851 55.1868 18.1139 55.1623 18.2532 55.118L18.4304 55.6331C18.335 55.6713 18.2411 55.7003 18.1487 55.7217C18.0548 55.7431 17.9594 55.7554 17.8594 55.7554C17.7594 55.7554 17.6595 55.7416 17.5534 55.7156C17.4489 55.6896 17.3368 55.6484 17.2172 55.5903" fill="#26B474"></path><path d="M21.3403 54.2452L21.8644 54.4164L22.1294 57.4016L21.5357 57.2074L21.4872 56.5456L20.3952 56.1895L19.9711 56.6969L19.3925 56.5074L21.3403 54.2437V54.2452ZM21.4463 55.974L21.3736 55.0171L20.7602 55.7508L21.4463 55.9755V55.974Z" fill="#26B474"></path><path d="M24.003 55.0355L25.2223 55.2602C25.5601 55.3213 25.8024 55.4619 25.9508 55.6774C26.0765 55.8593 26.1144 56.0779 26.069 56.3347V56.3423C26.0281 56.5609 25.9433 56.7291 25.813 56.8467C25.6827 56.9644 25.5267 57.0393 25.345 57.073L25.8221 58.1536L25.136 58.0283L24.7209 57.0607L24.2605 56.9751L24.1045 57.8372L23.5168 57.7287L24.0045 55.0355H24.003ZM24.9481 56.5624C25.0935 56.5884 25.2102 56.5747 25.301 56.5212C25.3904 56.4662 25.4465 56.3821 25.4661 56.2675V56.2598C25.4904 56.1329 25.4661 56.029 25.398 55.9495C25.3283 55.8716 25.2208 55.8181 25.0769 55.7906L24.4937 55.6836L24.3544 56.4524L24.9496 56.5624H24.9481Z" fill="#26B474"></path><path d="M27.4051 55.575L29.4438 55.6958L29.4135 56.2307L27.9625 56.1436L27.9291 56.7L29.206 56.7734L29.1757 57.3099L27.8988 57.2334L27.8655 57.8081L29.3347 57.8953L29.3044 58.4302L27.246 58.3079L27.4051 55.575Z" fill="#26B474"></path><path d="M32.5073 55.5827L34.5582 55.3213L34.6263 55.8654L33.1677 56.0504L33.2404 56.6281L34.5248 56.4646L34.5915 57.0087L33.3086 57.1723L33.4388 58.2224L32.8466 58.2988L32.5073 55.5827Z" fill="#26B474"></path><path d="M37.6389 57.4765C37.4375 57.53 37.2421 57.5437 37.0527 57.5162C36.8634 57.4902 36.6922 57.4321 36.5362 57.342C36.3802 57.2518 36.2469 57.1341 36.1364 56.9874C36.0243 56.8406 35.944 56.6725 35.894 56.483V56.4753C35.8425 56.2858 35.8319 56.0993 35.8592 55.9159C35.8849 55.7325 35.9455 55.5613 36.0364 55.4038C36.1273 55.2464 36.25 55.1088 36.4029 54.9927C36.5559 54.875 36.7331 54.7894 36.9346 54.7359C37.1376 54.6824 37.3329 54.6686 37.5208 54.6962C37.7101 54.7221 37.8813 54.7818 38.0373 54.8704C38.1918 54.9606 38.325 55.0783 38.4386 55.2265C38.5507 55.3733 38.631 55.5414 38.6795 55.7294V55.7371C38.731 55.9266 38.7416 56.1131 38.7158 56.2965C38.6886 56.4814 38.6295 56.6511 38.5386 56.8085C38.4462 56.966 38.325 57.1035 38.1721 57.2197C38.0206 57.3374 37.8419 57.423 37.6389 57.4765ZM37.5086 56.9369C37.6222 56.9064 37.7237 56.8574 37.8101 56.7887C37.8964 56.7199 37.9646 56.6389 38.013 56.5456C38.063 56.4509 38.0933 56.35 38.1054 56.2399C38.1175 56.1299 38.11 56.0183 38.0812 55.9052V55.8975C38.0494 55.7844 38.0039 55.682 37.9373 55.5918C37.8722 55.5017 37.7949 55.4268 37.704 55.3717C37.6132 55.3137 37.5132 55.277 37.4041 55.2586C37.2951 55.2403 37.183 55.2464 37.0679 55.277C36.9497 55.3075 36.8498 55.3565 36.7634 55.4252C36.6786 55.494 36.612 55.575 36.562 55.6683C36.5135 55.763 36.4832 55.8639 36.4696 55.974C36.4575 56.084 36.4651 56.1956 36.4938 56.3087V56.3164C36.5256 56.4295 36.5726 56.5319 36.6377 56.6221C36.7029 56.7122 36.7801 56.7871 36.8725 56.8422C36.9634 56.8987 37.0618 56.9369 37.1694 56.9553C37.2769 56.9736 37.389 56.9675 37.5071 56.9369" fill="#26B474"></path><path d="M39.4349 54.0144L40.58 53.536C40.8981 53.4031 41.1768 53.3878 41.4161 53.4871C41.6191 53.5712 41.7705 53.7332 41.869 53.9747L41.872 53.9824C41.9568 54.1872 41.975 54.3752 41.9296 54.5448C41.8826 54.716 41.7933 54.8628 41.6569 54.9912L42.6399 55.6392L41.9947 55.9082L41.1253 55.3228L40.6921 55.5032L41.0238 56.3133L40.4725 56.5441L39.4349 54.0144ZM41.048 54.7787C41.1844 54.7221 41.2752 54.6457 41.3207 54.5509C41.3676 54.4562 41.3676 54.3538 41.3237 54.2468L41.3207 54.2391C41.2722 54.1199 41.1965 54.0465 41.0965 54.0175C40.995 53.9885 40.8769 54.0038 40.7406 54.0603L40.1923 54.2896L40.4891 55.0126L41.048 54.7787Z" fill="#26B474"></path><path d="M45.7233 52.6571L43.9451 51.8562L44.5267 51.468L45.6687 52.0228L45.6157 50.7389L46.1807 50.3598L46.214 52.3147L46.8123 53.2242L46.314 53.5559L45.7233 52.6571Z" fill="#26B474"></path><path d="M49.6099 51.118C49.4508 51.2555 49.2812 51.3549 49.101 51.4145C48.9192 51.4741 48.739 51.497 48.5602 51.4863C48.3815 51.4741 48.2103 51.4282 48.0468 51.3457C47.8817 51.2632 47.7378 51.147 47.6105 51.0003L47.6045 50.9941C47.4772 50.8459 47.3864 50.6839 47.3318 50.5066C47.2758 50.3293 47.2546 50.1489 47.2682 49.9685C47.2819 49.7866 47.3318 49.6093 47.4182 49.4366C47.503 49.2639 47.6257 49.108 47.7847 48.9704C47.9438 48.8329 48.1134 48.7335 48.2936 48.6739C48.4754 48.6143 48.6541 48.5898 48.8329 48.6021C49.0116 48.6143 49.1827 48.6617 49.3478 48.7427C49.5114 48.8252 49.6568 48.9414 49.7841 49.0881L49.7886 49.0942C49.9143 49.2425 50.0067 49.4045 50.0612 49.5818C50.1173 49.7591 50.1385 49.9395 50.1249 50.1214C50.1127 50.3033 50.0612 50.4806 49.9764 50.6533C49.8901 50.826 49.7689 50.9819 49.6099 51.1195M49.2554 50.693C49.3448 50.6151 49.4145 50.5249 49.4614 50.4255C49.5084 50.3262 49.5341 50.2223 49.5372 50.1168C49.5417 50.0098 49.5235 49.9059 49.4887 49.8004C49.4524 49.6965 49.3963 49.5986 49.3191 49.51L49.3145 49.5039C49.2388 49.4152 49.1509 49.3449 49.054 49.2914C48.9555 49.2394 48.8541 49.2073 48.748 49.1966C48.642 49.1859 48.536 49.1966 48.43 49.2287C48.3239 49.2608 48.2255 49.3143 48.1361 49.3938C48.0437 49.4733 47.974 49.5635 47.9286 49.6628C47.8817 49.7622 47.8574 49.8646 47.8544 49.9701C47.8498 50.0771 47.8665 50.1825 47.9029 50.2865C47.9392 50.3904 47.9953 50.4882 48.071 50.5769L48.077 50.583C48.1528 50.6716 48.2406 50.7435 48.3376 50.7954C48.436 50.8474 48.5375 50.8795 48.6435 50.8902C48.7496 50.9009 48.8556 50.8902 48.9601 50.8596C49.0646 50.8291 49.1631 50.774 49.2554 50.693Z" fill="#26B474"></path><path d="M52.5265 48.2047C52.2857 48.4798 52.0191 48.6296 51.7313 48.654C51.4405 48.6785 51.1467 48.5562 50.8453 48.2887L49.6835 47.2539L50.0773 46.8015L51.2285 47.8271C51.3951 47.9754 51.5541 48.0488 51.7071 48.0457C51.8601 48.0426 51.9964 47.9708 52.1191 47.8317C52.2388 47.6926 52.2948 47.5474 52.2812 47.3976C52.2675 47.2463 52.1797 47.0996 52.0176 46.9544L50.8528 45.9165L51.2482 45.4641L52.3963 46.4866C52.5508 46.6242 52.6674 46.7648 52.7447 46.91C52.8219 47.0537 52.8643 47.1989 52.8734 47.3456C52.8825 47.4924 52.8552 47.6376 52.7962 47.7828C52.7371 47.928 52.6462 48.0686 52.5265 48.2062" fill="#26B474"></path></svg> 